<svg xmlns="http://www.w3.org/2000/svg" viewBox="0 0 64 64">
  <defs>
    <radialGradient id="light" cx="50%" cy="8%" r="55%">
      <stop offset="0" stop-color="#fffdf8"/>
      <stop offset=".34" stop-color="#d7d9d8"/>
      <stop offset=".72" stop-color="#2a2c2f"/>
      <stop offset="1" stop-color="#050506"/>
    </radialGradient>
    <linearGradient id="stairs" x1="0" x2="0" y1="16" y2="58">
      <stop offset="0" stop-color="#f5f4ef"/>
      <stop offset=".45" stop-color="#73777a"/>
      <stop offset="1" stop-color="#0b0c0e"/>
    </linearGradient>
  </defs>
  <rect width="64" height="64" rx="13" fill="#050506"/>
  <path d="M5 58V8c7 19 13 28 21 34L15 58H5Z" fill="#111317"/>
  <path d="M59 58V8c-7 19-13 28-21 34l11 16h10Z" fill="#111317"/>
  <path d="M23 57 31 18c.2-1.2 1.6-1.2 2 0l8 39H23Z" fill="url(#stairs)"/>
  <path d="M17 58h30l-5-6H22l-5 6Z" fill="#050506"/>
  <path d="M23 50h18M25 44h14M27 38h10M28.5 33h7M30 28h4" stroke="#f0eee8" stroke-width="2" stroke-linecap="round"/>
  <path d="M14 58 25 34l5 24H14Z" fill="#07080a"/>
  <path d="M50 58 39 34l-5 24h16Z" fill="#07080a"/>
  <path d="M18 15c5 18 8 25 14 33 6-8 9-15 14-33-7 7-21 7-28 0Z" fill="url(#light)" opacity=".92"/>
  <path d="M25 9c2.5 5.4 4.8 8.1 7 8.1s4.5-2.7 7-8.1c-2.4 1.3-4.7 2-7 2s-4.6-.7-7-2Z" fill="#fffdf8"/>
</svg>
